<mxfile host="app.diagrams.net" modified="2024-05-26T15:09:04.725Z" agent="Mozilla/5.0 (Windows NT 10.0; Win64; x64) AppleWebKit/537.36 (KHTML, like Gecko) Chrome/123.0.0.0 Safari/537.36 OPR/109.0.0.0 (Edition std-1)" etag="jI1XpkcMmd_sP_QbmAM2" version="24.4.8" type="device">
  <diagram id="C5RBs43oDa-KdzZeNtuy" name="Page-1">
    <mxGraphModel dx="1453" dy="826" grid="1" gridSize="10" guides="1" tooltips="1" connect="1" arrows="1" fold="1" page="1" pageScale="1" pageWidth="827" pageHeight="1169" math="0" shadow="0">
      <root>
        <mxCell id="WIyWlLk6GJQsqaUBKTNV-0" />
        <mxCell id="WIyWlLk6GJQsqaUBKTNV-1" parent="WIyWlLk6GJQsqaUBKTNV-0" />
        <mxCell id="q-cNv8RktpBJCgjQ_TfM-0" value="Konzept" style="shape=umlFrame;whiteSpace=wrap;html=1;pointerEvents=0;recursiveResize=0;container=1;collapsible=0;width=160;" parent="WIyWlLk6GJQsqaUBKTNV-1" vertex="1">
          <mxGeometry x="100" y="20" width="710" height="520" as="geometry" />
        </mxCell>
        <mxCell id="WIyWlLk6GJQsqaUBKTNV-12" value="Korrelationsanalyse" style="rounded=1;whiteSpace=wrap;html=1;fontSize=12;glass=0;strokeWidth=1;shadow=0;" parent="q-cNv8RktpBJCgjQ_TfM-0" vertex="1">
          <mxGeometry x="110" y="130" width="120" height="40" as="geometry" />
        </mxCell>
        <mxCell id="q-cNv8RktpBJCgjQ_TfM-3" value="" style="rounded=0;html=1;jettySize=auto;orthogonalLoop=1;fontSize=11;endArrow=block;endFill=0;endSize=8;strokeWidth=1;shadow=0;labelBackgroundColor=none;edgeStyle=orthogonalEdgeStyle;entryX=0.5;entryY=0;entryDx=0;entryDy=0;" parent="q-cNv8RktpBJCgjQ_TfM-0" edge="1">
          <mxGeometry relative="1" as="geometry">
            <mxPoint x="170" y="170" as="sourcePoint" />
            <mxPoint x="230" y="210" as="targetPoint" />
            <Array as="points">
              <mxPoint x="170" y="190" />
              <mxPoint x="230" y="190" />
            </Array>
          </mxGeometry>
        </mxCell>
        <mxCell id="ZAU6xRtBG_FToSxyxseo-0" value="Random Search" style="rounded=1;whiteSpace=wrap;html=1;fontSize=12;glass=0;strokeWidth=1;shadow=0;fillColor=#d5e8d4;strokeColor=#82b366;" parent="q-cNv8RktpBJCgjQ_TfM-0" vertex="1">
          <mxGeometry x="170" y="210" width="120" height="40" as="geometry" />
        </mxCell>
        <mxCell id="ZAU6xRtBG_FToSxyxseo-1" value="Definition und Training der ML-Modelle" style="rounded=1;whiteSpace=wrap;html=1;fontSize=12;glass=0;strokeWidth=1;shadow=0;fillColor=#d5e8d4;strokeColor=#82b366;" parent="q-cNv8RktpBJCgjQ_TfM-0" vertex="1">
          <mxGeometry x="230" y="290" width="120" height="40" as="geometry" />
        </mxCell>
        <mxCell id="ZAU6xRtBG_FToSxyxseo-2" value="" style="rounded=0;html=1;jettySize=auto;orthogonalLoop=1;fontSize=11;endArrow=block;endFill=0;endSize=8;strokeWidth=1;shadow=0;labelBackgroundColor=none;edgeStyle=orthogonalEdgeStyle;entryX=0.5;entryY=0;entryDx=0;entryDy=0;" parent="q-cNv8RktpBJCgjQ_TfM-0" edge="1">
          <mxGeometry relative="1" as="geometry">
            <mxPoint x="230" y="250" as="sourcePoint" />
            <mxPoint x="290" y="290" as="targetPoint" />
            <Array as="points">
              <mxPoint x="230" y="270" />
              <mxPoint x="290" y="270" />
            </Array>
          </mxGeometry>
        </mxCell>
        <mxCell id="q-cNv8RktpBJCgjQ_TfM-1" value="Renditevorhersage" style="rounded=1;whiteSpace=wrap;html=1;fontSize=12;glass=0;strokeWidth=1;shadow=0;" parent="q-cNv8RktpBJCgjQ_TfM-0" vertex="1">
          <mxGeometry x="290" y="370" width="120" height="40" as="geometry" />
        </mxCell>
        <mxCell id="q-cNv8RktpBJCgjQ_TfM-4" value="Portfoliooptimierung mit dem Mean-Varianz-Modell" style="rounded=1;whiteSpace=wrap;html=1;fontSize=12;glass=0;strokeWidth=1;shadow=0;" parent="q-cNv8RktpBJCgjQ_TfM-0" vertex="1">
          <mxGeometry x="350" y="450" width="120" height="40" as="geometry" />
        </mxCell>
        <mxCell id="q-cNv8RktpBJCgjQ_TfM-5" value="" style="rounded=0;html=1;jettySize=auto;orthogonalLoop=1;fontSize=11;endArrow=block;endFill=0;endSize=8;strokeWidth=1;shadow=0;labelBackgroundColor=none;edgeStyle=orthogonalEdgeStyle;entryX=0.5;entryY=0;entryDx=0;entryDy=0;" parent="q-cNv8RktpBJCgjQ_TfM-0" edge="1">
          <mxGeometry relative="1" as="geometry">
            <mxPoint x="350" y="410" as="sourcePoint" />
            <mxPoint x="410" y="450" as="targetPoint" />
            <Array as="points">
              <mxPoint x="350" y="430" />
              <mxPoint x="410" y="430" />
            </Array>
          </mxGeometry>
        </mxCell>
        <mxCell id="q-cNv8RktpBJCgjQ_TfM-9" value="" style="rounded=0;html=1;jettySize=auto;orthogonalLoop=1;fontSize=11;endArrow=block;endFill=0;endSize=8;strokeWidth=1;shadow=0;labelBackgroundColor=none;edgeStyle=orthogonalEdgeStyle;entryX=1;entryY=0.5;entryDx=0;entryDy=0;exitX=1;exitY=0.5;exitDx=0;exitDy=0;" parent="q-cNv8RktpBJCgjQ_TfM-0" source="q-cNv8RktpBJCgjQ_TfM-4" target="q-cNv8RktpBJCgjQ_TfM-1" edge="1">
          <mxGeometry relative="1" as="geometry">
            <mxPoint x="530" y="555" as="sourcePoint" />
            <mxPoint x="640" y="490" as="targetPoint" />
            <Array as="points">
              <mxPoint x="580" y="470" />
              <mxPoint x="580" y="390" />
            </Array>
          </mxGeometry>
        </mxCell>
        <mxCell id="q-cNv8RktpBJCgjQ_TfM-10" value="Zyklus, bei aktiver Verwaltung" style="text;html=1;align=center;verticalAlign=middle;whiteSpace=wrap;rounded=0;" parent="q-cNv8RktpBJCgjQ_TfM-0" vertex="1">
          <mxGeometry x="590" y="410" width="60" height="30" as="geometry" />
        </mxCell>
        <mxCell id="ZAU6xRtBG_FToSxyxseo-3" value="" style="rounded=0;html=1;jettySize=auto;orthogonalLoop=1;fontSize=11;endArrow=block;endFill=0;endSize=8;strokeWidth=1;shadow=0;labelBackgroundColor=none;edgeStyle=orthogonalEdgeStyle;entryX=0.5;entryY=0;entryDx=0;entryDy=0;" parent="q-cNv8RktpBJCgjQ_TfM-0" edge="1">
          <mxGeometry relative="1" as="geometry">
            <mxPoint x="290" y="330" as="sourcePoint" />
            <mxPoint x="350" y="370" as="targetPoint" />
            <Array as="points">
              <mxPoint x="290" y="350" />
              <mxPoint x="350" y="350" />
            </Array>
          </mxGeometry>
        </mxCell>
        <mxCell id="ZAU6xRtBG_FToSxyxseo-4" value="" style="rounded=1;whiteSpace=wrap;html=1;fillColor=#d5e8d4;strokeColor=#82b366;" parent="q-cNv8RktpBJCgjQ_TfM-0" vertex="1">
          <mxGeometry x="30" y="460" width="60" height="20" as="geometry" />
        </mxCell>
        <mxCell id="ZAU6xRtBG_FToSxyxseo-5" value="= nur fÃ¼r ML-Modelle" style="text;html=1;align=center;verticalAlign=middle;whiteSpace=wrap;rounded=0;fontSize=16;" parent="q-cNv8RktpBJCgjQ_TfM-0" vertex="1">
          <mxGeometry x="90" y="455" width="160" height="30" as="geometry" />
        </mxCell>
        <mxCell id="WIyWlLk6GJQsqaUBKTNV-3" value="Fundamentalanalyse" style="rounded=1;whiteSpace=wrap;html=1;fontSize=12;glass=0;strokeWidth=1;shadow=0;" parent="q-cNv8RktpBJCgjQ_TfM-0" vertex="1">
          <mxGeometry x="60" y="50" width="120" height="40" as="geometry" />
        </mxCell>
        <mxCell id="WIyWlLk6GJQsqaUBKTNV-2" value="" style="rounded=0;html=1;jettySize=auto;orthogonalLoop=1;fontSize=11;endArrow=block;endFill=0;endSize=8;strokeWidth=1;shadow=0;labelBackgroundColor=none;edgeStyle=orthogonalEdgeStyle;entryX=0.5;entryY=0;entryDx=0;entryDy=0;" parent="q-cNv8RktpBJCgjQ_TfM-0" source="WIyWlLk6GJQsqaUBKTNV-3" target="WIyWlLk6GJQsqaUBKTNV-12" edge="1">
          <mxGeometry relative="1" as="geometry">
            <mxPoint x="120" y="150" as="targetPoint" />
            <Array as="points">
              <mxPoint x="120" y="110" />
              <mxPoint x="170" y="110" />
            </Array>
          </mxGeometry>
        </mxCell>
      </root>
    </mxGraphModel>
  </diagram>
</mxfile>
